name Walk1.mot
datacolumns 19
datarows 30
range 1.47700000 1.50600000
endheader

                time	   L_ground_force_vx	   L_ground_force_vy	   L_ground_force_vz	   L_ground_force_px	   L_ground_force_py	   L_ground_force_pz	   R_ground_force_vx	   R_ground_force_vy	   R_ground_force_vz	   R_ground_force_px	   R_ground_force_py	   R_ground_force_pz	   L_ground_torque_x	   L_ground_torque_y	   L_ground_torque_z	   R_ground_torque_x	   R_ground_torque_y	   R_ground_torque_z	
          1.47700000	          0.00000000	          0.00000000	          0.00000000	          0.00000000	          0.00000000	          0.00000000	         24.46815496	        693.86996758	        -12.60197262	         -0.10585497	          0.00000000	          0.36099507	          0.00000000	          0.00000000	          0.00000000	          0.00000000	          1.14107524	          0.00000000	
          1.47800000	          0.00000000	          0.00000000	          0.00000000	          0.00000000	          0.00000000	          0.00000000	         24.92476990	        695.09872014	        -12.71611516	         -0.10561488	          0.00000000	          0.36110257	          0.00000000	          0.00000000	          0.00000000	          0.00000000	          1.09607801	          0.00000000	
          1.47900000	          0.00000000	          0.00000000	          0.00000000	          0.00000000	          0.00000000	          0.00000000	         25.38208651	        696.28779679	        -12.82999074	         -0.10537712	          0.00000000	          0.36121647	          0.00000000	          0.00000000	          0.00000000	          0.00000000	          1.06123384	          0.00000000	
          1.48000000	          0.00000000	          0.00000000	          0.00000000	          0.00000000	          0.00000000	          0.00000000	         25.83528087	        697.47836331	        -12.93784414	         -0.10513404	          0.00000000	          0.36127140	          0.00000000	          0.00000000	          0.00000000	          0.00000000	          1.04378988	          0.00000000	
          1.48100000	          0.00000000	          0.00000000	          0.00000000	          0.00000000	          0.00000000	          0.00000000	         26.28890207	        698.69482294	        -13.04299897	         -0.10487663	          0.00000000	          0.36124271	          0.00000000	          0.00000000	          0.00000000	          0.00000000	          1.04183442	          0.00000000	
          1.48200000	          0.00000000	          0.00000000	          0.00000000	          0.00000000	          0.00000000	          0.00000000	         26.75225383	        699.92877305	        -13.15199870	         -0.10458907	          0.00000000	          0.36116015	          0.00000000	          0.00000000	          0.00000000	          0.00000000	          1.04839451	          0.00000000	
          1.48300000	          0.00000000	          0.00000000	          0.00000000	          0.00000000	          0.00000000	          0.00000000	         27.22566779	        701.16834678	        -13.26893965	         -0.10426238	          0.00000000	          0.36106299	          0.00000000	          0.00000000	          0.00000000	          0.00000000	          1.05806729	          0.00000000	
          1.48400000	          0.00000000	          0.00000000	          0.00000000	          0.00000000	          0.00000000	          0.00000000	         27.69899924	        702.42390553	        -13.39517244	         -0.10390833	          0.00000000	          0.36096910	          0.00000000	          0.00000000	          0.00000000	          0.00000000	          1.06843631	          0.00000000	
          1.48500000	          0.00000000	          0.00000000	          0.00000000	          0.00000000	          0.00000000	          0.00000000	         28.16377926	        703.70720720	        -13.53008754	         -0.10354311	          0.00000000	          0.36088027	          0.00000000	          0.00000000	          0.00000000	          0.00000000	          1.07718022	          0.00000000	
          1.48600000	          0.00000000	          0.00000000	          0.00000000	          0.00000000	          0.00000000	          0.00000000	         28.62070010	        705.01808833	        -13.67043485	         -0.10317731	          0.00000000	          0.36079182	          0.00000000	          0.00000000	          0.00000000	          0.00000000	          1.08053213	          0.00000000	
          1.48700000	          0.00000000	          0.00000000	          0.00000000	          0.00000000	          0.00000000	          0.00000000	         29.07374692	        706.35954484	        -13.81058752	         -0.10282455	          0.00000000	          0.36069351	          0.00000000	          0.00000000	          0.00000000	          0.00000000	          1.07625398	          0.00000000	
          1.48800000	          0.00000000	          0.00000000	          0.00000000	          0.00000000	          0.00000000	          0.00000000	         29.52225153	        707.73023770	        -13.94564546	         -0.10249608	          0.00000000	          0.36057611	          0.00000000	          0.00000000	          0.00000000	          0.00000000	          1.06641391	          0.00000000	
          1.48900000	          0.00000000	          0.00000000	          0.00000000	          0.00000000	          0.00000000	          0.00000000	         29.96265357	        709.09979051	        -14.08258245	         -0.10219126	          0.00000000	          0.36044345	          0.00000000	          0.00000000	          0.00000000	          0.00000000	          1.05381895	          0.00000000	
          1.49000000	          0.00000000	          0.00000000	          0.00000000	          0.00000000	          0.00000000	          0.00000000	         30.39313140	        710.40241055	        -14.24675946	         -0.10189531	          0.00000000	          0.36032324	          0.00000000	          0.00000000	          0.00000000	          0.00000000	          1.03634943	          0.00000000	
          1.49100000	          0.00000000	          0.00000000	          0.00000000	          0.00000000	          0.00000000	          0.00000000	         30.81180177	        711.56869269	        -14.46405933	         -0.10158320	          0.00000000	          0.36025989	          0.00000000	          0.00000000	          0.00000000	          0.00000000	          1.00824916	          0.00000000	
          1.49200000	          0.00000000	          0.00000000	          0.00000000	          0.00000000	          0.00000000	          0.00000000	         31.21259494	        712.58087377	        -14.73951683	         -0.10123894	          0.00000000	          0.36028146	          0.00000000	          0.00000000	          0.00000000	          0.00000000	          0.96818913	          0.00000000	
          1.49300000	          0.00000000	          0.00000000	          0.00000000	          0.00000000	          0.00000000	          0.00000000	         31.58720826	        713.48919144	        -15.05532921	         -0.10087173	          0.00000000	          0.36038029	          0.00000000	          0.00000000	          0.00000000	          0.00000000	          0.92474239	          0.00000000	
          1.49400000	          0.00000000	          0.00000000	          0.00000000	          0.00000000	          0.00000000	          0.00000000	         31.94083653	        714.39626638	        -15.37632178	         -0.10051271	          0.00000000	          0.36050613	          0.00000000	          0.00000000	          0.00000000	          0.00000000	          0.89212153	          0.00000000	
          1.49500000	          0.00000000	          0.00000000	          0.00000000	          0.00000000	          0.00000000	          0.00000000	         32.30634239	        715.43339521	        -15.66283519	         -0.10019779	          0.00000000	          0.36056244	          0.00000000	          0.00000000	          0.00000000	          0.00000000	          0.87938836	          0.00000000	
          1.49600000	          0.00000000	          0.00000000	          0.00000000	          0.00000000	          0.00000000	          0.00000000	         32.73067326	        716.68049981	        -15.89655018	         -0.09993960	          0.00000000	          0.36047168	          0.00000000	          0.00000000	          0.00000000	          0.00000000	          0.88275962	          0.00000000	
          1.49700000	          0.00000000	          0.00000000	          0.00000000	          0.00000000	          0.00000000	          0.00000000	         33.24887449	        718.09555611	        -16.08943100	         -0.09971911	          0.00000000	          0.36025518	          0.00000000	          0.00000000	          0.00000000	          0.00000000	          0.88889544	          0.00000000	
          1.49800000	          0.00000000	          0.00000000	          0.00000000	          0.00000000	          0.00000000	          0.00000000	         33.87053848	        719.56764124	        -16.26432572	         -0.09951478	          0.00000000	          0.35999324	          0.00000000	          0.00000000	          0.00000000	          0.00000000	          0.88663056	          0.00000000	
          1.49900000	          0.00000000	          0.00000000	          0.00000000	          0.00000000	          0.00000000	          0.00000000	         34.57823734	        721.00657042	        -16.43597784	         -0.09932239	          0.00000000	          0.35974901	          0.00000000	          0.00000000	          0.00000000	          0.00000000	          0.87270491	          0.00000000	
          1.50000000	          0.00000000	          0.00000000	          0.00000000	          0.00000000	          0.00000000	          0.00000000	         35.33865218	        722.35179740	        -16.60085825	         -0.09913717	          0.00000000	          0.35957088	          0.00000000	          0.00000000	          0.00000000	          0.00000000	          0.84753628	          0.00000000	
          1.50100000	          0.00000000	          0.00000000	          0.00000000	          0.00000000	          0.00000000	          0.00000000	         36.11625085	        723.53922995	        -16.74129060	         -0.09893280	          0.00000000	          0.35950140	          0.00000000	          0.00000000	          0.00000000	          0.00000000	          0.81280052	          0.00000000	
          1.50200000	          0.00000000	          0.00000000	          0.00000000	          0.00000000	          0.00000000	          0.00000000	         36.87786383	        724.51277233	        -16.84726786	         -0.09867221	          0.00000000	          0.35954773	          0.00000000	          0.00000000	          0.00000000	          0.00000000	          0.77266935	          0.00000000	
          1.50300000	          0.00000000	          0.00000000	          0.00000000	          0.00000000	          0.00000000	          0.00000000	         37.59946147	        725.28651966	        -16.92575786	         -0.09834588	          0.00000000	          0.35966768	          0.00000000	          0.00000000	          0.00000000	          0.00000000	          0.73235606	          0.00000000	
          1.50400000	          0.00000000	          0.00000000	          0.00000000	          0.00000000	          0.00000000	          0.00000000	         38.27403817	        725.95133570	        -16.99305972	         -0.09798637	          0.00000000	          0.35980105	          0.00000000	          0.00000000	          0.00000000	          0.00000000	          0.69466090	          0.00000000	
          1.50500000	          0.00000000	          0.00000000	          0.00000000	          0.00000000	          0.00000000	          0.00000000	         38.90827827	        726.59922554	        -17.07028823	         -0.09763281	          0.00000000	          0.35990969	          0.00000000	          0.00000000	          0.00000000	          0.00000000	          0.65941912	          0.00000000	
          1.50600000	          0.00000000	          0.00000000	          0.00000000	          0.00000000	          0.00000000	          0.00000000	         39.51044021	        727.28686721	        -17.17502449	         -0.09730199	          0.00000000	          0.35997546	          0.00000000	          0.00000000	          0.00000000	          0.00000000	          0.62833963	          0.00000000	
